<svg width="122" height="23" viewBox="0 0 122 23" fill="currentColor" xmlns="http://www.w3.org/2000/svg">
<path d="M0.389781 18C0.149781 18 0.0297813 17.88 0.0297813 17.64C0.0297813 17.4 0.149781 17.28 0.389781 17.28H2.06978C2.30978 17.28 2.42978 17.16 2.42978 16.92V2.28C2.42978 2.04 2.30978 1.92 2.06978 1.92H0.389781C0.149781 1.92 0.0297813 1.8 0.0297813 1.56C0.0297813 1.32 0.149781 1.2 0.389781 1.2H5.66978C5.90978 1.2 6.02978 1.32 6.02978 1.56C6.02978 1.8 5.90978 1.92 5.66978 1.92H3.50978C3.26978 1.92 3.14978 2.04 3.14978 2.28V16.92C3.14978 17.16 3.26978 17.28 3.50978 17.28H11.1898C11.4298 17.28 11.5498 17.16 11.5498 16.92V14.28C11.5498 14.04 11.6698 13.92 11.9098 13.92C12.1498 13.92 12.2698 14.04 12.2698 14.28V17.64C12.2698 17.88 12.1498 18 11.9098 18H0.389781ZM15.6568 16.512C14.5688 15.36 14.0248 13.856 14.0248 12C14.0248 10.144 14.5688 8.64 15.6568 7.488C16.7448 6.336 18.1608 5.76 19.9048 5.76C21.6488 5.76 23.0648 6.336 24.1528 7.488C25.2408 8.64 25.7848 10.144 25.7848 12C25.7848 13.856 25.2408 15.36 24.1528 16.512C23.0648 17.664 21.6488 18.24 19.9048 18.24C18.1608 18.24 16.7448 17.664 15.6568 16.512ZM19.9048 6.48C18.3528 6.48 17.1048 6.984 16.1608 7.992C15.2168 9 14.7448 10.344 14.7448 12.024C14.7448 13.688 15.2088 15.024 16.1368 16.032C17.0808 17.024 18.3368 17.52 19.9048 17.52C21.4728 17.52 22.7208 17.024 23.6488 16.032C24.5928 15.024 25.0648 13.688 25.0648 12.024C25.0648 10.344 24.5928 9 23.6488 7.992C22.7048 6.984 21.4568 6.48 19.9048 6.48ZM33.9438 0.959999C34.6158 0.959999 35.1998 1.088 35.6958 1.344C36.1918 1.6 36.5678 1.856 36.8238 2.112C37.0798 2.368 37.2078 2.544 37.2078 2.64C37.2078 2.736 37.1438 2.84 37.0158 2.952C36.8878 3.08 36.7118 3.04 36.4878 2.832C36.2798 2.608 35.9518 2.36 35.5038 2.088C35.0718 1.816 34.5518 1.68 33.9438 1.68C32.9358 1.68 32.1598 2 31.6158 2.64C31.0878 3.264 30.8238 4.184 30.8238 5.4V5.64C30.8238 5.88 30.9438 6 31.1838 6H35.0238C35.2638 6 35.3838 6.12 35.3838 6.36C35.3838 6.6 35.2638 6.72 35.0238 6.72H31.1838C30.9438 6.72 30.8238 6.84 30.8238 7.08V16.92C30.8238 17.16 30.9438 17.28 31.1838 17.28H33.1038C33.3438 17.28 33.4638 17.4 33.4638 17.64C33.4638 17.88 33.3438 18 33.1038 18H28.0638C27.8238 18 27.7038 17.88 27.7038 17.64C27.7038 17.4 27.8238 17.28 28.0638 17.28H29.7438C29.9838 17.28 30.1038 17.16 30.1038 16.92V7.08C30.1038 6.84 29.9838 6.72 29.7438 6.72H28.0638C27.8238 6.72 27.7038 6.6 27.7038 6.36C27.7038 6.12 27.8238 6 28.0638 6H29.7438C29.9838 6 30.1038 5.88 30.1038 5.64V5.4C30.1038 3.96 30.4318 2.864 31.0878 2.112C31.7438 1.344 32.6958 0.959999 33.9438 0.959999ZM45.7773 16.32C45.9373 16.16 46.0813 16.144 46.2093 16.272C46.3373 16.4 46.4013 16.504 46.4013 16.584C46.4173 16.664 46.3613 16.768 46.2333 16.896C45.8493 17.28 45.4653 17.568 45.0813 17.76C44.0893 18.096 43.5213 18.256 43.3773 18.24C43.2333 18.24 43.1533 18.24 43.1373 18.24C42.0173 18.24 41.1373 17.88 40.4973 17.16C39.8573 16.44 39.5373 15.4 39.5373 14.04V7.08C39.5373 6.84 39.4173 6.72 39.1773 6.72H37.4973C37.2573 6.72 37.1373 6.6 37.1373 6.36C37.1373 6.12 37.2573 6 37.4973 6H39.1773C39.4173 6 39.5373 5.88 39.5373 5.64V1.56C39.5373 1.32 39.6573 1.2 39.8973 1.2C40.1373 1.2 40.2573 1.32 40.2573 1.56V5.64C40.2573 5.88 40.3773 6 40.6173 6H44.6973C44.9373 6 45.0573 6.12 45.0573 6.36C45.0573 6.6 44.9373 6.72 44.6973 6.72H40.6173C40.3773 6.72 40.2573 6.84 40.2573 7.08V14.04C40.2573 15.192 40.5133 16.064 41.0253 16.656C41.5373 17.232 42.2413 17.52 43.1373 17.52C44.0493 17.52 44.9293 17.12 45.7773 16.32ZM50.393 16.2C51.737 17.08 53.209 17.52 54.809 17.52C56.425 17.52 57.673 17.168 58.553 16.464C59.449 15.744 59.897 14.816 59.897 13.68C59.897 13.056 59.705 12.512 59.321 12.048C58.937 11.584 58.457 11.224 57.881 10.968C57.241 10.68 56.001 10.288 54.161 9.792C52.321 9.28 51.049 8.856 50.345 8.52C49.657 8.168 49.113 7.728 48.713 7.2C48.329 6.672 48.137 6.064 48.137 5.376C48.137 4.032 48.577 2.96 49.457 2.16C50.337 1.36 51.737 0.959999 53.657 0.959999C55.561 0.959999 57.313 1.64 58.913 3C59.169 3.208 59.297 3.128 59.297 2.76V1.56C59.297 1.32 59.417 1.2 59.657 1.2C59.897 1.2 60.017 1.32 60.017 1.56V6.12C60.017 6.36 59.897 6.48 59.657 6.48C59.417 6.48 59.297 6.36 59.297 6.12V4.44C58.417 3.432 57.321 2.656 56.009 2.112C55.305 1.824 54.521 1.68 53.657 1.68C52.025 1.68 50.817 2.016 50.033 2.688C49.249 3.36 48.857 4.184 48.857 5.16C48.857 5.784 49.049 6.328 49.433 6.792C49.817 7.256 50.297 7.616 50.873 7.872C51.513 8.16 52.753 8.56 54.593 9.072C56.433 9.568 57.697 9.992 58.385 10.344C59.089 10.68 59.633 11.112 60.017 11.64C60.417 12.168 60.617 12.8 60.617 13.536C60.617 14.976 60.113 16.12 59.105 16.968C58.097 17.816 56.601 18.24 54.617 18.24C52.633 18.24 50.841 17.56 49.241 16.2C48.985 15.992 48.857 16.072 48.857 16.44V17.64C48.857 17.88 48.737 18 48.497 18C48.257 18 48.137 17.88 48.137 17.64V13.08C48.137 12.84 48.257 12.72 48.497 12.72C48.737 12.72 48.857 12.84 48.857 13.08V14.88C49.289 15.376 49.801 15.816 50.393 16.2ZM68.9846 17.28C70.8246 17.28 72.2406 16.832 73.2326 15.936C74.2406 15.04 74.7446 13.72 74.7446 11.976C74.7446 10.232 74.3206 8.88 73.4726 7.92C72.6406 6.96 71.5606 6.48 70.2326 6.48C68.9046 6.48 67.6966 7.024 66.6086 8.112C66.1606 8.56 65.7526 9.096 65.3846 9.72V16.92C65.3846 17.16 65.5046 17.28 65.7446 17.28H68.9846ZM65.7446 18C65.5046 18 65.3846 18.12 65.3846 18.36V21.72C65.3846 21.96 65.5046 22.08 65.7446 22.08H67.6646C67.9046 22.08 68.0246 22.2 68.0246 22.44C68.0246 22.68 67.9046 22.8 67.6646 22.8H62.6246C62.3846 22.8 62.2646 22.68 62.2646 22.44C62.2646 22.2 62.3846 22.08 62.6246 22.08H64.3046C64.5446 22.08 64.6646 21.96 64.6646 21.72V7.08C64.6646 6.84 64.5446 6.72 64.3046 6.72H62.6246C62.3846 6.72 62.2646 6.6 62.2646 6.36C62.2646 6.12 62.3846 6 62.6246 6H65.0246C65.2646 6 65.3846 6.12 65.3846 6.36V7.704C65.3846 7.864 65.4166 7.976 65.4806 8.04C65.5446 8.104 65.6406 8.072 65.7686 7.944C66.1686 7.432 66.7526 6.944 67.5206 6.48C68.2886 6 69.1766 5.76 70.1846 5.76C71.7846 5.76 73.0646 6.328 74.0246 7.464C74.9846 8.584 75.4646 10.096 75.4646 12C75.4646 13.904 74.8886 15.384 73.7366 16.44C72.5846 17.48 71.0006 18 68.9846 18H65.7446ZM86.8423 12.12C86.8423 11.88 86.7223 11.76 86.4823 11.76H82.5223C81.1303 11.76 80.0983 12.032 79.4263 12.576C78.7703 13.12 78.4423 13.816 78.4423 14.664C78.4423 15.496 78.7463 16.184 79.3543 16.728C79.9783 17.256 80.9143 17.52 82.1623 17.52C83.7143 17.52 85.0823 16.736 86.2663 15.168C86.4743 14.896 86.6663 14.6 86.8423 14.28V12.12ZM83.0983 5.76C84.4423 5.76 85.5223 6.144 86.3383 6.912C87.1543 7.664 87.5623 8.6 87.5623 9.72V16.92C87.5623 17.16 87.6823 17.28 87.9223 17.28H89.6023C89.8423 17.28 89.9623 17.4 89.9623 17.64C89.9623 17.88 89.8423 18 89.6023 18H87.2023C86.9623 18 86.8423 17.88 86.8423 17.64V16.296C86.8423 16.136 86.8103 16.024 86.7463 15.96C86.6823 15.896 86.5863 15.928 86.4583 16.056C86.0263 16.6 85.4263 17.104 84.6583 17.568C83.8903 18.016 83.0903 18.24 82.2583 18.24C80.7703 18.24 79.6423 17.912 78.8743 17.256C78.1063 16.584 77.7223 15.72 77.7223 14.664C77.7223 13.608 78.1623 12.744 79.0423 12.072C79.9223 11.384 81.0823 11.04 82.5223 11.04H86.4823C86.7223 11.04 86.8423 10.92 86.8423 10.68V9.72C86.8423 8.792 86.4903 8.024 85.7863 7.416C85.0823 6.792 84.2183 6.48 83.1943 6.48C82.1703 6.48 81.3303 6.624 80.6743 6.912C80.0183 7.184 79.5543 7.424 79.2823 7.632C79.0263 7.84 78.8263 7.848 78.6823 7.656C78.5543 7.464 78.5783 7.304 78.7543 7.176C79.9063 6.232 81.3543 5.76 83.0983 5.76ZM101.537 9C100.241 7.32 98.7207 6.48 96.9767 6.48C95.6807 6.48 94.5927 6.992 93.7127 8.016C92.8487 9.056 92.4167 10.4 92.4167 12.048C92.4167 13.696 92.8727 15.024 93.7847 16.032C94.6967 17.024 95.8967 17.52 97.3847 17.52C98.8567 17.52 100.089 17.12 101.081 16.32C101.337 16.128 101.537 15.968 101.681 15.84C101.825 15.712 101.937 15.672 102.017 15.72C102.097 15.752 102.177 15.816 102.257 15.912C102.337 16.008 102.377 16.096 102.377 16.176C102.377 16.24 102.305 16.344 102.161 16.488C101.633 16.952 100.985 17.36 100.217 17.712C99.4647 18.064 98.5047 18.24 97.3367 18.24C95.6407 18.24 94.2727 17.664 93.2327 16.512C92.2087 15.344 91.6967 13.84 91.6967 12C91.6967 10.16 92.2007 8.664 93.2087 7.512C94.2167 6.344 95.4887 5.76 97.0247 5.76C98.5767 5.76 99.9527 6.36 101.153 7.56C101.409 7.784 101.537 7.704 101.537 7.32V6.36C101.537 6.12 101.657 6 101.897 6C102.137 6 102.257 6.12 102.257 6.36V10.2C102.257 10.44 102.137 10.56 101.897 10.56C101.657 10.56 101.537 10.44 101.537 10.2V9ZM114.301 16.32C114.557 16.128 114.749 15.968 114.877 15.84C115.021 15.712 115.133 15.672 115.213 15.72C115.293 15.752 115.389 15.84 115.501 15.984C115.629 16.112 115.597 16.256 115.405 16.416C114.829 16.912 114.165 17.344 113.413 17.712C112.661 18.064 111.701 18.24 110.533 18.24C108.837 18.24 107.469 17.656 106.429 16.488C105.405 15.32 104.893 13.824 104.893 12C104.893 10.176 105.405 8.68 106.429 7.512C107.469 6.344 108.821 5.76 110.485 5.76C112.165 5.76 113.533 6.288 114.589 7.344C115.645 8.4 116.173 9.672 116.173 11.16V11.52C116.173 12 115.933 12.24 115.453 12.24H105.997C105.725 12.24 105.605 12.36 105.637 12.6C105.733 13.992 106.205 15.16 107.053 16.104C107.917 17.048 109.093 17.52 110.581 17.52C112.085 17.52 113.325 17.12 114.301 16.32ZM105.661 11.232C105.661 11.424 105.773 11.52 105.997 11.52H115.093C115.333 11.52 115.453 11.4 115.453 11.16C115.453 9.88 114.981 8.784 114.037 7.872C113.109 6.944 111.925 6.48 110.485 6.48C109.061 6.48 107.901 6.984 107.005 7.992C106.109 9 105.661 10.08 105.661 11.232ZM119.278 17.928C119.07 17.704 118.966 17.408 118.966 17.04C118.966 16.672 119.07 16.384 119.278 16.176C119.502 15.952 119.798 15.84 120.166 15.84C120.534 15.84 120.822 15.952 121.03 16.176C121.254 16.384 121.366 16.672 121.366 17.04C121.366 17.408 121.254 17.704 121.03 17.928C120.822 18.136 120.534 18.24 120.166 18.24C119.798 18.24 119.502 18.136 119.278 17.928Z" fill="currentColor"/>
</svg>
