<svg width="16" height="16" viewBox="0 0 16 16" fill="currentColor" xmlns="http://www.w3.org/2000/svg">
<path d="M6.5 1.5C9.25586 1.5 11.5 3.74414 11.5 6.5C11.5 7.69727 11.0801 8.79492 10.375 9.65625L14.3594 13.6406L13.6406 14.3594L9.65625 10.375C8.79492 11.0801 7.69727 11.5 6.5 11.5C3.74414 11.5 1.5 9.25586 1.5 6.5C1.5 3.74414 3.74414 1.5 6.5 1.5ZM6.5 2.5C4.28516 2.5 2.5 4.28516 2.5 6.5C2.5 8.71484 4.28516 10.5 6.5 10.5C8.71484 10.5 10.5 8.71484 10.5 6.5C10.5 4.28516 8.71484 2.5 6.5 2.5Z" fill="currentColor"/>
</svg>
